<svg xmlns="http://www.w3.org/2000/svg" width="120" height="60">
    <path d="M52.85 14.7l-4.77 12.19h1.59l1.39-3.67h5.02l1.41 3.67h1.59L54.32 14.7h-1.47zm-1.27 7.15l1.99-5.2 1.99 5.2h-3.97zm12.76-3.95c-1.09 0-2.03.58-2.48 1.21v-1.03h-1.49v12.19h1.49v-4.41c.46.64 1.39 1.21 2.48 1.21 2.6 0 3.97-2.14 3.97-4.59s-1.37-4.59-3.97-4.59zm-.22 7.82c-.93 0-1.81-.54-2.26-1.45V20.7c.46-.91 1.33-1.45 2.26-1.45 1.69 0 2.68 1.37 2.68 3.24s-.99 3.24-2.68 3.24zm8.79-7.82c-1.69 0-3 1.01-3.3 2.5h1.47c.28-.81.87-1.21 1.81-1.21 1.27 0 1.95.79 1.95 1.89v1.11c-.38-.34-1.31-.71-2.22-.71-1.89 0-3.38 1.11-3.38 2.76 0 1.75 1.49 2.82 3.28 2.82 1.05 0 1.99-.46 2.32-.81v.65h1.43v-5.88c0-1.93-1.25-3.12-3.36-3.12zm1.93 6.81c-.26.66-1.15 1.09-2.06 1.09-1.07 0-2.1-.5-2.1-1.57s1.03-1.53 2.1-1.53c.91 0 1.81.44 2.06 1.09v.91zm6.89-5.5c1.05 0 1.81.58 2.01 1.53h1.53c-.3-1.69-1.55-2.84-3.53-2.84-2.36 0-4.01 1.85-4.01 4.59s1.65 4.59 4.01 4.59c1.99 0 3.24-1.15 3.53-2.84h-1.53c-.2.95-.95 1.53-2.01 1.53-1.51 0-2.5-1.35-2.5-3.28s.99-3.28 2.5-3.28zm9.11-1.31c-1.13 0-2.08.6-2.6 1.29v-5.2h-1.49v12.9h1.49v-5.98c.32-.95 1.21-1.65 2.24-1.65 1.33 0 1.95.85 1.95 2.08v5.54h1.51V21.1c0-1.93-1.09-3.22-3.1-3.22zm12.25 4.32c0-2.56-1.29-4.33-3.71-4.33s-4.01 1.97-4.01 4.61 1.65 4.57 4.05 4.57c1.99 0 3.24-1.15 3.55-2.82h-1.41c-.24.99-1.05 1.55-2.14 1.55-1.49 0-2.54-1.15-2.56-3.04h6.23v-.54zm-6.19-.6c.22-1.55 1.17-2.46 2.5-2.46 1.47 0 2.16 1.15 2.18 2.46h-4.69z" style="fill:#7c7c7c"/>
    <path fill="#2c6791" d="M24.38 37.74c.39.05.71.05.9.27.12.13.17.42.21.61.1.42.39.68.83.67.48 0 .68.27.83.66.33.82.79 2.12 1.13 2.94-.06-1.41-.44-3.26-1.03-4.55-.56-1.21-1.54-1.48-2.87-.6zm-2.46-12.89c.16.11.28.27.41.41 1.67 1.78 2.97 3.76 3.37 6.22.1.62.11 1.25.16 1.92 1.51-.21 2.36-1.1 2.2-2.47-.12-1.02-.39-2.05-.79-2.99-.84-1.96-2.21-3.57-3.67-5.1-.21-.22-.41-.5-.47-.78-.58-2.76-.58-5.51-.04-8.29.56-2.87 1.73-4.54 2.71-6.26-.11.04-.81.95-.83.98-3.51 4.03-4.85 8.72-4.25 14 .11.95.36 1.79 1.19 2.36zm15.68 4.26c-.88 1.09-1.79 2.16-2.74 3.19-.19.2-.67.34-.89.24-.2-.09-.39-.58-.33-.84.18-.87.37-1.76.75-2.55.89-1.89 2.32-3.38 3.81-4.81.24-.23.41-.25.47-.57.9-5.07-.03-10.04-3.13-14.2-.24-.32-.46-.62-.72-.93S33.8 7.48 33.78 7.5c.01.06.83 1.2.93 1.37 2.19 4.07 2.8 8.71 1.8 13.29-.08.4-.26.43-.54.71-1.36 1.4-2.58 2.88-3.53 4.59-1.34 2.4-1.53 4.76.12 7.1.96 1.37.92 2.67 0 4.1-.58.89-.96 1.95-1.23 2.99-.38 1.45-.26 2.95.11 4.39.09.34.19.82.14 1.1-.26.51-.41.69-.83 1.06-.18.13-.27.32-.43.32-.15 0-.36-.18-.53-.33-.26-.31-.67-.61-.99-.9 0 0-.01 0-.02-.01-.03 0-.05 0-.06.03-.07.25.03.63.1.7.28.28.5.35.83.58.48.33.73.81.62 1.29-.14.59-.6.62-1.08.6-.06 0-.46-.03-.52-.02.31.29 1.25.28 1.49.6.33.45.28 1.03.03 1.43.07-.02.64-.31.76-.36 1.01-.42 1.5-1.07 1.91-2.09 1.2-3.03 1.67-6.51 1.91-9.73.03-.37.06-.42.15-.76.18-.35.81-.85.82-1.6.5-.15.69-.19.91-.34-.1-.02-.42-.18-.48-.21-.96-.72-1-1.56-.35-2.59.41-.55 1.08-1.22 1.66-1.65.51-.57.92-.68 1.24-1.62.76-1.48.78-3.1.62-4.75-.61.75-1.13 1.56-1.73 2.31zm-16.91-.45c.24 2.22 1.49 3.71 3.23 4.87-.54-1.88-2.28-4.46-3.23-4.87z"/>
    <path fill="#2c6791" d="M49.01 32.75h2.06v12.19h-2.06z"/>
    <path fill="#2c6791" d="M62.33 35.92c-1.19 0-2.01.46-2.62 1.17-.46-.67-1.33-1.17-2.32-1.17s-1.79.38-2.2.93v-.73H53.2v8.82h1.99v-5.92c.18-.87.85-1.31 1.57-1.31.97 0 1.45.71 1.45 1.81v5.42h1.99v-5.92c.18-.87.85-1.31 1.57-1.31.97 0 1.45.71 1.45 1.81v5.42h1.99V39.2c0-2.01-1.05-3.28-2.86-3.28zm8.98 0c-.97 0-1.85.46-2.24.95v-.75h-1.99v12.19h1.99v-4.13c.4.5 1.27.95 2.24.95 2.58 0 4.09-2.14 4.09-4.61s-1.51-4.61-4.09-4.61zm-.34 7.45c-.81 0-1.57-.48-1.91-1.17v-3.34a2.15 2.15 0 011.91-1.17c1.53 0 2.44 1.21 2.44 2.84s-.91 2.84-2.44 2.84zm9.07-7.45c-1.81 0-3.2 1.13-3.45 2.64h1.91c.22-.62.71-.95 1.51-.95 1.13 0 1.69.69 1.69 1.59v.71c-.36-.26-1.25-.54-2.04-.54-1.95 0-3.43 1.17-3.43 2.84 0 1.81 1.49 2.88 3.3 2.88.99 0 1.89-.36 2.18-.65v.5h1.89v-5.78c0-2-1.31-3.24-3.53-3.24zm1.65 6.67c-.22.56-1.01.89-1.81.89-.89 0-1.83-.38-1.83-1.27s.93-1.25 1.83-1.25c.79 0 1.59.34 1.81.89v.73z"/>
    <path fill="#2c6791" d="M85.46 32.03h1.99v12.9h-1.99z"/>
    <path fill="#2c6791" d="M92.7 35.92c-1.81 0-3.2 1.13-3.45 2.64h1.91c.22-.62.71-.95 1.51-.95 1.13 0 1.69.69 1.69 1.59v.71c-.36-.26-1.25-.54-2.04-.54-1.95 0-3.43 1.17-3.43 2.84 0 1.81 1.49 2.88 3.3 2.88.99 0 1.89-.36 2.18-.65v.5h1.89v-5.78c0-2-1.31-3.24-3.53-3.24zm1.65 6.67c-.22.56-1.01.89-1.81.89-.89 0-1.83-.38-1.83-1.27s.93-1.25 1.83-1.25c.79 0 1.59.34 1.81.89v.73z"/>
</svg>
