<svg xmlns="http://www.w3.org/2000/svg" width="200" height="128">
    <path d="M86.24 39.21l-7.92 20.26h2.64l2.31-6.11h8.35l2.34 6.11h2.64l-7.92-20.26h-2.44zm-2.11 11.88l3.3-8.65 3.3 8.65h-6.6zm21.22-6.57c-1.82 0-3.37.96-4.13 2.01v-1.72h-2.48v20.26h2.48v-7.33c.76 1.06 2.31 2.01 4.13 2.01 4.32 0 6.6-3.56 6.6-7.62s-2.28-7.62-6.6-7.62zm-.36 13c-1.55 0-3-.89-3.76-2.41v-5.94c.76-1.52 2.21-2.41 3.76-2.41 2.81 0 4.46 2.28 4.46 5.38s-1.65 5.38-4.46 5.38zm14.61-13c-2.81 0-4.98 1.68-5.48 4.16h2.44c.46-1.35 1.45-2.01 3-2.01 2.11 0 3.23 1.32 3.23 3.14v1.85c-.63-.56-2.18-1.19-3.7-1.19-3.14 0-5.61 1.85-5.61 4.59 0 2.9 2.48 4.69 5.45 4.69 1.75 0 3.3-.76 3.86-1.35v1.09h2.38v-9.77c0-3.2-2.08-5.18-5.58-5.18zm3.2 11.32c-.43 1.09-1.91 1.82-3.43 1.82-1.78 0-3.5-.83-3.5-2.61s1.72-2.54 3.5-2.54c1.52 0 3 .73 3.43 1.82v1.52zm11.45-9.14c1.75 0 3 .96 3.33 2.54h2.54c-.5-2.81-2.57-4.72-5.87-4.72-3.93 0-6.67 3.07-6.67 7.62s2.74 7.62 6.67 7.62c3.3 0 5.38-1.91 5.87-4.72h-2.54c-.33 1.58-1.58 2.54-3.33 2.54-2.51 0-4.16-2.25-4.16-5.45s1.65-5.44 4.16-5.44zm15.15-2.18c-1.88 0-3.47.99-4.32 2.15v-8.65h-2.48v21.45h2.48v-9.93c.53-1.58 2.01-2.74 3.73-2.74 2.21 0 3.23 1.42 3.23 3.47v9.21h2.51v-9.6c0-3.2-1.82-5.35-5.15-5.35zm20.36 7.19c0-4.26-2.15-7.2-6.17-7.2s-6.67 3.27-6.67 7.66 2.74 7.59 6.73 7.59c3.3 0 5.38-1.91 5.91-4.69h-2.34c-.4 1.65-1.75 2.57-3.56 2.57-2.48 0-4.22-1.91-4.26-5.05h10.36v-.89zm-10.3-.99c.36-2.57 1.95-4.09 4.16-4.09 2.44 0 3.6 1.91 3.63 4.09h-7.79z" style="fill:#7c7c7c"/>
    <path fill="#2c6791" d="M60.89 63.16c-1.46 1.82-2.98 3.59-4.55 5.3-.31.34-1.11.56-1.49.4-.34-.15-.65-.96-.56-1.39.3-1.44.62-2.92 1.24-4.24 1.48-3.14 3.86-5.62 6.33-8 .4-.39.68-.41.78-.94 1.5-8.42-.05-16.69-5.2-23.6-.4-.53-.77-1.03-1.19-1.54s-1.69-1.93-1.73-1.9c.02.11 1.38 1.99 1.54 2.29 3.64 6.77 4.65 14.49 3 22.1-.13.66-.43.71-.9 1.19-2.26 2.32-4.29 4.79-5.88 7.63-2.22 3.98-2.54 7.91.2 11.8 1.6 2.27 1.53 4.45 0 6.82-.96 1.48-1.6 3.24-2.05 4.97-.63 2.4-.43 4.9.18 7.3.15.57.31 1.36.23 1.83-.44.85-.68 1.15-1.38 1.77-.3.21-.45.53-.71.53-.24 0-.6-.29-.88-.55-.44-.52-1.12-1.02-1.64-1.49 0 0-.02-.01-.03-.02-.04-.01-.08.01-.1.06-.12.42.05 1.04.16 1.16.46.47.84.58 1.38.96.8.56 1.22 1.35 1.03 2.14-.24.99-1 1.03-1.8 1-.1 0-.77-.05-.87-.03.51.49 2.08.46 2.48 1 .55.75.47 1.72.06 2.38.12-.03 1.07-.52 1.27-.6 1.69-.71 2.5-1.77 3.17-3.48 1.99-5.04 2.78-10.83 3.17-16.18.05-.62.1-.71.24-1.26.3-.58 1.34-1.41 1.37-2.66.83-.24 1.15-.32 1.51-.56-.17-.04-.7-.29-.8-.35-1.6-1.2-1.66-2.59-.59-4.3.68-.92 1.8-2.02 2.76-2.75.85-.94 1.53-1.13 2.06-2.69 1.26-2.46 1.3-5.15 1.03-7.89-1.01 1.25-1.88 2.6-2.87 3.84zm-28.11-.75c.4 3.69 2.48 6.17 5.37 8.1-.9-3.13-3.78-7.42-5.37-8.1zm6.14 15.09c.64.08 1.18.09 1.5.44.19.22.28.69.35 1.01.16.69.65 1.13 1.39 1.11.79-.01 1.13.45 1.38 1.1.54 1.37 1.32 3.53 1.87 4.89-.11-2.35-.73-5.43-1.72-7.56-.93-2.01-2.57-2.46-4.78-.99zm-4.08-21.42c.26.18.46.45.68.68 2.77 2.96 4.94 6.25 5.6 10.35.17 1.03.18 2.08.26 3.19 2.5-.35 3.92-1.82 3.66-4.11-.19-1.69-.64-3.4-1.31-4.97-1.39-3.26-3.67-5.93-6.1-8.49-.34-.36-.68-.83-.78-1.29-.97-4.58-.96-9.16-.06-13.78.92-4.77 2.87-7.55 4.51-10.41-.19.07-1.34 1.58-1.38 1.63-5.84 6.7-8.07 14.49-7.07 23.28.18 1.58.6 2.97 1.98 3.92z"/>
    <path fill="#2c6791" d="M79.87 69.2h3.43v20.26h-3.43z"/>
    <path fill="#2c6791" d="M102.01 74.48c-1.98 0-3.33.76-4.36 1.95-.76-1.12-2.21-1.95-3.86-1.95s-2.97.63-3.66 1.55v-1.22h-3.3v14.65h3.3v-9.83c.3-1.45 1.42-2.18 2.61-2.18 1.62 0 2.41 1.19 2.41 3v9.01h3.3v-9.83c.3-1.45 1.42-2.18 2.61-2.18 1.62 0 2.41 1.19 2.41 3v9.01h3.3v-9.54c0-3.33-1.75-5.45-4.75-5.45zm14.92 0c-1.62 0-3.07.76-3.73 1.58v-1.25h-3.3v20.26h3.3v-6.86c.66.83 2.11 1.58 3.73 1.58 4.29 0 6.8-3.56 6.8-7.66s-2.51-7.66-6.8-7.66zm-.56 12.38c-1.35 0-2.61-.79-3.17-1.95v-5.54c.56-1.16 1.82-1.95 3.17-1.95 2.54 0 4.06 2.01 4.06 4.72s-1.52 4.72-4.06 4.72zm15.08-12.38c-3 0-5.31 1.88-5.74 4.39h3.17c.36-1.02 1.19-1.58 2.51-1.58 1.88 0 2.81 1.16 2.81 2.64v1.19c-.59-.43-2.08-.89-3.4-.89-3.23 0-5.71 1.95-5.71 4.72 0 3 2.48 4.79 5.48 4.79 1.65 0 3.14-.59 3.63-1.09v.83h3.14v-9.6c0-3.33-2.18-5.38-5.88-5.38zm2.74 11.09c-.36.92-1.68 1.49-3 1.49-1.48 0-3.04-.63-3.04-2.11s1.55-2.08 3.04-2.08c1.32 0 2.64.56 3 1.48v1.22z"/>
    <path fill="#2c6791" d="M140.46 68.02h3.3v21.45h-3.3z"/>
    <path fill="#2c6791" d="M152.5 74.48c-3 0-5.31 1.88-5.74 4.39h3.17c.36-1.02 1.19-1.58 2.51-1.58 1.88 0 2.81 1.16 2.81 2.64v1.19c-.59-.43-2.08-.89-3.4-.89-3.23 0-5.71 1.95-5.71 4.72 0 3 2.48 4.79 5.48 4.79 1.65 0 3.14-.59 3.63-1.09v.83h3.14v-9.6c0-3.33-2.18-5.38-5.88-5.38zm2.74 11.09c-.36.92-1.68 1.49-3 1.49-1.48 0-3.04-.63-3.04-2.11s1.55-2.08 3.04-2.08c1.32 0 2.64.56 3 1.48v1.22z"/>
</svg>
