<svg xmlns="http://www.w3.org/2000/svg" width="128" height="128">
    <path d="M77.61 4.14c.72.87 1.36 1.72 2.03 2.62 8.77 11.76 11.41 25.84 8.86 40.19-.16.91-.64.95-1.32 1.61-4.21 4.06-8.27 8.28-10.79 13.63-1.06 2.25-1.6 4.77-2.11 7.23-.15.73.37 2.11.95 2.36.65.28 2-.1 2.53-.68 2.68-2.92 5.27-5.93 7.75-9.03 1.69-2.11 3.16-4.4 4.89-6.53.47 4.67.39 9.25-1.75 13.43-.9 2.66-2.06 2.98-3.51 4.58-1.65 1.23-3.54 3.11-4.71 4.68-1.82 2.92-1.72 5.28 1 7.32.17.1 1.07.54 1.36.6-.62.41-1.16.55-2.57.96-.05 2.12-1.82 3.53-2.33 4.53-.24.95-.34 1.09-.41 2.15-.67 9.11-2.01 18.98-5.4 27.55-1.15 2.9-2.53 4.72-5.4 5.92-.34.14-1.95.98-2.16 1.02.71-1.12.84-2.78-.1-4.05-.67-.91-3.35-.86-4.22-1.7.17-.04 1.32.05 1.48.05 1.37.05 2.66-.02 3.06-1.71.32-1.35-.4-2.7-1.76-3.65-.92-.64-1.56-.83-2.35-1.63-.19-.19-.48-1.27-.28-1.97.02-.07.09-.11.16-.1.02 0 .04.02.06.03.89.8 2.06 1.65 2.8 2.54.48.44 1.08.94 1.5.93.44 0 .69-.54 1.21-.9 1.18-1.05 1.6-1.57 2.35-3.01.13-.79-.15-2.14-.4-3.11-1.04-4.08-1.36-8.33-.3-12.42.76-2.94 1.86-5.93 3.49-8.46 2.61-4.04 2.73-7.74 0-11.61-4.67-6.62-4.13-13.31-.35-20.09 2.7-4.83 6.16-9.04 10-12.99.79-.82 1.31-.9 1.53-2.02 2.81-12.96 1.08-26.1-5.11-37.63-.27-.5-2.59-3.71-2.62-3.89.07-.05 2.88 3.29 2.95 3.24zM52.29 74.23c-.15-1.9-.17-3.68-.45-5.43-1.13-6.97-4.82-12.58-9.54-17.62-.37-.4-.72-.85-1.16-1.16-2.36-1.62-3.07-3.99-3.38-6.68-1.7-14.96 2.1-28.23 12.04-39.64.07-.08 2.03-2.64 2.35-2.77-2.79 4.86-6.1 9.6-7.68 17.72-1.52 7.86-1.54 15.65.11 23.46.17.8.75 1.59 1.33 2.2 4.13 4.35 8.01 8.9 10.38 14.45 1.14 2.66 1.9 5.58 2.23 8.46.45 3.9-1.97 6.41-6.24 7zm-4.2 12.27c3.77-2.51 6.56-1.73 8.14 1.69 1.68 3.63 2.74 8.87 2.93 12.88-.95-2.32-2.27-6-3.19-8.33-.43-1.1-1.01-1.89-2.36-1.87-1.26.02-2.09-.71-2.36-1.89-.13-.54-.28-1.35-.6-1.72-.55-.61-1.45-.62-2.55-.76zm-1.31-11.91c-4.92-3.29-8.47-7.51-9.15-13.79 2.71 1.16 7.61 8.46 9.15 13.79z" fill="#2c6791" />
</svg>
